<?xml version="1.0" standalone="no"?><?xml-stylesheet type="text/css" href="https://www.processon.com/themes/default/mind/icons/icons.css" ?><!DOCTYPE svg PUBLIC "-//W3C//DTD SVG 1.1//EN" "http://www.w3.org/Graphics/SVG/1.1/DTD/svg11.dtd"><svg id="SvgjsSvg1845" xmlns="http://www.w3.org/2000/svg" version="1.1" xmlns:xlink="http://www.w3.org/1999/xlink" xmlns:svgjs="http://svgjs.com/svgjs" width="1085" height="1190"><rect fill="url(#pattern_mark)" transform="translate(17,5.04998779296875)" width="1115" height="3664" id="rect_mark" pointer-events="none"></rect><defs id="SvgjsDefs1846"><marker id="SvgjsMarker1885" markerWidth="14" markerHeight="10" refX="10" refY="5" viewBox="0 0 14 10" orient="auto" markerUnits="userSpaceOnUse" stroke-dasharray="0,0"><path id="SvgjsPath1886" d="M0 0L14 5L0 10L0 0 " fill="#323232" stroke="#323232" stroke-width="1"></path></marker><marker id="SvgjsMarker1897" markerWidth="14" markerHeight="10" refX="10" refY="5" viewBox="0 0 14 10" orient="auto" markerUnits="userSpaceOnUse" stroke-dasharray="0,0"><path id="SvgjsPath1898" d="M0 0L14 5L0 10L0 0 " fill="#323232" stroke="#323232" stroke-width="1"></path></marker><marker id="SvgjsMarker1942" markerWidth="14" markerHeight="10" refX="10" refY="5" viewBox="0 0 14 10" orient="auto" markerUnits="userSpaceOnUse" stroke-dasharray="0,0"><path id="SvgjsPath1943" d="M0 0L14 5L0 10L0 0 " fill="#323232" stroke="#323232" stroke-width="1"></path></marker><marker id="SvgjsMarker1946" markerWidth="14" markerHeight="10" refX="10" refY="5" viewBox="0 0 14 10" orient="auto" markerUnits="userSpaceOnUse" stroke-dasharray="0,0"><path id="SvgjsPath1947" d="M0 0L14 5L0 10L0 0 " fill="#323232" stroke="#323232" stroke-width="1"></path></marker><marker id="SvgjsMarker1976" markerWidth="14" markerHeight="10" refX="10" refY="5" viewBox="0 0 14 10" orient="auto" markerUnits="userSpaceOnUse" stroke-dasharray="0,0"><path id="SvgjsPath1977" d="M0 0L14 5L0 10L0 0 " fill="#323232" stroke="#323232" stroke-width="1"></path></marker><marker id="SvgjsMarker1980" markerWidth="14" markerHeight="10" refX="10" refY="5" viewBox="0 0 14 10" orient="auto" markerUnits="userSpaceOnUse" stroke-dasharray="0,0"><path id="SvgjsPath1981" d="M0 0L14 5L0 10L0 0 " fill="#323232" stroke="#323232" stroke-width="1"></path></marker><marker id="SvgjsMarker1984" markerWidth="14" markerHeight="10" refX="10" refY="5" viewBox="0 0 14 10" orient="auto" markerUnits="userSpaceOnUse" stroke-dasharray="0,0"><path id="SvgjsPath1985" d="M0 0L14 5L0 10L0 0 " fill="#323232" stroke="#323232" stroke-width="1"></path></marker><marker id="SvgjsMarker1988" markerWidth="14" markerHeight="10" refX="10" refY="5" viewBox="0 0 14 10" orient="auto" markerUnits="userSpaceOnUse" stroke-dasharray="0,0"><path id="SvgjsPath1989" d="M0 0L14 5L0 10L0 0 " fill="#323232" stroke="#323232" stroke-width="1"></path></marker><marker id="SvgjsMarker1992" markerWidth="14" markerHeight="10" refX="10" refY="5" viewBox="0 0 14 10" orient="auto" markerUnits="userSpaceOnUse" stroke-dasharray="0,0"><path id="SvgjsPath1993" d="M0 0L14 5L0 10L0 0 " fill="#323232" stroke="#323232" stroke-width="1"></path></marker><marker id="SvgjsMarker2002" markerWidth="14" markerHeight="10" refX="10" refY="5" viewBox="0 0 14 10" orient="auto" markerUnits="userSpaceOnUse" stroke-dasharray="0,0"><path id="SvgjsPath2003" d="M0 0L14 5L0 10L0 0 " fill="#323232" stroke="#323232" stroke-width="1"></path></marker><marker id="SvgjsMarker2052" markerWidth="14" markerHeight="10" refX="10" refY="5" viewBox="0 0 14 10" orient="auto" markerUnits="userSpaceOnUse" stroke-dasharray="0,0"><path id="SvgjsPath2053" d="M0 0L14 5L0 10L0 0 " fill="#323232" stroke="#323232" stroke-width="1"></path></marker><marker id="SvgjsMarker2056" markerWidth="14" markerHeight="10" refX="10" refY="5" viewBox="0 0 14 10" orient="auto" markerUnits="userSpaceOnUse" stroke-dasharray="0,0"><path id="SvgjsPath2057" d="M0 0L14 5L0 10L0 0 " fill="#323232" stroke="#323232" stroke-width="1"></path></marker><marker id="SvgjsMarker2060" markerWidth="14" markerHeight="10" refX="10" refY="5" viewBox="0 0 14 10" orient="auto" markerUnits="userSpaceOnUse" stroke-dasharray="0,0"><path id="SvgjsPath2061" d="M0 0L14 5L0 10L0 0 " fill="#323232" stroke="#323232" stroke-width="1"></path></marker><marker id="SvgjsMarker2064" markerWidth="14" markerHeight="10" refX="10" refY="5" viewBox="0 0 14 10" orient="auto" markerUnits="userSpaceOnUse" stroke-dasharray="0,0"><path id="SvgjsPath2065" d="M0 0L14 5L0 10L0 0 " fill="#323232" stroke="#323232" stroke-width="1"></path></marker><marker id="SvgjsMarker2068" markerWidth="14" markerHeight="10" refX="10" refY="5" viewBox="0 0 14 10" orient="auto" markerUnits="userSpaceOnUse" stroke-dasharray="0,0"><path id="SvgjsPath2069" d="M0 0L14 5L0 10L0 0 " fill="#323232" stroke="#323232" stroke-width="1"></path></marker><marker id="SvgjsMarker2072" markerWidth="14" markerHeight="10" refX="10" refY="5" viewBox="0 0 14 10" orient="auto" markerUnits="userSpaceOnUse" stroke-dasharray="0,0"><path id="SvgjsPath2073" d="M0 0L14 5L0 10L0 0 " fill="#323232" stroke="#323232" stroke-width="1"></path></marker><pattern patternUnits="userSpaceOnUse" id="pattern_mark" width="300" height="300"><text x="-50" y="150" fill="rgba(229,229,229,0.8)" font-size="18" transform="rotate(-45, 150, 150)"></text></pattern></defs><g id="svgbackgroundid"><defs></defs><rect x="0" y="0" width="1085" height="1190" fill="#ffffff"></rect></g><g id="SvgjsG1847" transform="translate(25,471.01066600364766)"><path id="SvgjsPath1848" d="M0 0L1035 0L1035 694.0393217893211L0 694.0393217893211Z " stroke-dasharray="10,6" stroke="rgba(50,50,50,1)" stroke-width="2" fill-opacity="1" fill="#ffffff"></path><g id="SvgjsG1849"><text id="SvgjsText1850" font-family="微软雅黑" text-anchor="middle" font-size="13px" width="1015px" fill="#323232" font-weight="400" align="middle" lineheight="125%" font-style="" opacity="1" y="336.39466089466055" transform="rotate(0)"></text></g></g><g id="SvgjsG1851" transform="translate(27.186765615337023,25.010666003647685)"><path id="SvgjsPath1852" d="M0 0L1030.626468769326 0L1030.626468769326 426.0393217893211L0 426.0393217893211Z " stroke-dasharray="10,6" stroke="rgba(50,50,50,1)" stroke-width="2" fill-opacity="1" fill="#ffffff"></path><g id="SvgjsG1853"><text id="SvgjsText1854" font-family="微软雅黑" text-anchor="middle" font-size="13px" width="1011px" fill="#323232" font-weight="400" align="middle" lineheight="125%" font-style="" opacity="1" y="202.39466089466055" transform="rotate(0)"></text></g></g><g id="SvgjsG1855" transform="translate(225.49999999999997,681.2999877929688)"><path id="SvgjsPath1856" d="M0 4Q0 0 4 0L655 0Q659 0 659 4L659 307Q659 311 655 311L4 311Q0 311 0 307Z " stroke="rgba(50,50,50,1)" stroke-width="2" fill-opacity="1" fill="#ffffff"></path><g id="SvgjsG1857"><text id="SvgjsText1858" font-family="微软雅黑" text-anchor="middle" font-size="13px" width="639px" fill="#323232" font-weight="400" align="middle" lineheight="125%" font-style="" opacity="1" y="144.875" transform="rotate(0)"></text></g></g><g id="SvgjsG1859" transform="translate(456.5,722.7999877929688)"><path id="SvgjsPath1860" d="M0 4Q0 0 4 0L383 0Q387 0 387 4L387 224Q387 228 383 228L4 228Q0 228 0 224Z " stroke-dasharray="10,6" stroke="rgba(50,50,50,1)" stroke-width="2" fill-opacity="1" fill="#e5ccff"></path><g id="SvgjsG1861"><text id="SvgjsText1862" font-family="微软雅黑" text-anchor="middle" font-size="13px" width="367px" fill="#323232" font-weight="400" align="middle" lineheight="125%" font-style="" opacity="1" y="103.375" transform="rotate(0)"></text></g></g><g id="SvgjsG1863" transform="translate(262.5,723.2999877929688)"><path id="SvgjsPath1864" d="M0 4Q0 0 4 0L158 0Q162 0 162 4L162 223Q162 227 158 227L4 227Q0 227 0 223Z " stroke-dasharray="10,6" stroke="rgba(50,50,50,1)" stroke-width="2" fill-opacity="1" fill="#ffffcc"></path><g id="SvgjsG1865"><text id="SvgjsText1866" font-family="微软雅黑" text-anchor="middle" font-size="13px" width="142px" fill="#323232" font-weight="400" align="middle" lineheight="125%" font-style="" opacity="1" y="102.875" transform="rotate(0)"></text></g></g><g id="SvgjsG1867" transform="translate(406.83333333333326,516.2999877929686)"><path id="SvgjsPath1868" d="M0 0L66.16666666666674 0L82.16666666666674 16L82.16666666666674 70L0 70L0 0Z " stroke="none" fill-opacity="1" fill="#ffffaa"></path><path id="SvgjsPath1869" d="M66.16666666666674 0L66.16666666666674 16L82.16666666666674 16Z " stroke="none" fill-opacity="1" fill="#cdcdcd"></path><path id="SvgjsPath1870" d="M0 0L66.16666666666674 0L82.16666666666674 16L82.16666666666674 70L0 70L0 0Z " stroke="none" fill="none"></path><g id="SvgjsG1871"><text id="SvgjsText1872" font-family="微软雅黑" text-anchor="middle" font-size="17px" width="63px" fill="#323232" font-weight="700" align="middle" lineheight="125%" font-style="" opacity="1" y="9.875" transform="rotate(0)"><tspan id="SvgjsTspan1873" dy="21" x="41.5"><tspan id="SvgjsTspan1874" style="text-decoration:;">.class</tspan></tspan><tspan id="SvgjsTspan1875" dy="21" x="41.5"><tspan id="SvgjsTspan1876" style="text-decoration:;">文件</tspan></tspan></text></g></g><g id="SvgjsG1877" transform="translate(225.49999999999997,516.2999877929686)"><path id="SvgjsPath1878" d="M0 4Q0 0 4 0L96 0Q100 0 100 4L100 66Q100 70 96 70L4 70Q0 70 0 66Z " stroke="rgba(50,50,50,1)" stroke-width="2" fill-opacity="1" fill="#ffffff"></path><g id="SvgjsG1879"><text id="SvgjsText1880" font-family="微软雅黑" text-anchor="middle" font-size="18px" width="80px" fill="#323232" font-weight="700" align="middle" lineheight="125%" font-style="" opacity="1" y="19.75" transform="rotate(0)"><tspan id="SvgjsTspan1881" dy="22" x="50"><tspan id="SvgjsTspan1882" style="text-decoration:;">.java</tspan></tspan></text></g></g><g id="SvgjsG1883"><path id="SvgjsPath1884" d="M326.5 551.2999877929688L366.16666666666663 551.2999877929688L366.16666666666663 551.2999877929688L404.23333333333323 551.2999877929688 " stroke="#323232" stroke-width="2" fill="none" marker-end="url(#SvgjsMarker1885)"></path></g><g id="SvgjsG1887" transform="translate(568.5,516.2999877929686)"><path id="SvgjsPath1888" d="M0 4Q0 0 4 0L147.77777777777771 0Q151.77777777777771 0 151.77777777777771 4L151.77777777777771 66Q151.77777777777771 70 147.77777777777771 70L4 70Q0 70 0 66Z " stroke="rgba(50,50,50,1)" stroke-width="2" fill-opacity="1" fill="#ffffff"></path><g id="SvgjsG1889"><text id="SvgjsText1890" font-family="微软雅黑" text-anchor="middle" font-size="15px" width="132px" fill="#323232" font-weight="700" align="middle" lineheight="125%" font-style="" opacity="1" y="13.625" transform="rotate(0)"><tspan id="SvgjsTspan1891" dy="18" x="76"><tspan id="SvgjsTspan1892" style="text-decoration:;">类加载器</tspan></tspan><tspan id="SvgjsTspan1893" dy="18" x="76"><tspan id="SvgjsTspan1894" style="text-decoration:;">ClassLoader</tspan></tspan></text></g></g><g id="SvgjsG1895"><path id="SvgjsPath1896" d="M489 551.2999877929688L528.75 551.2999877929688L528.75 551.2999877929688L564.9 551.2999877929688 " stroke="#323232" stroke-width="2" fill="none" marker-end="url(#SvgjsMarker1897)"></path></g><g id="SvgjsG1899" transform="translate(280.5,851.2999877929688)"><path id="SvgjsPath1900" d="M0 4Q0 0 4 0L122 0Q126 0 126 4L126 74Q126 78 122 78L4 78Q0 78 0 74Z " stroke="rgba(50,50,50,1)" stroke-width="2" fill-opacity="1" fill="#ffffff"></path><g id="SvgjsG1901"><text id="SvgjsText1902" font-family="微软雅黑" text-anchor="middle" font-size="14px" width="106px" fill="#323232" font-weight="400" align="middle" lineheight="125%" font-style="" opacity="1" y="19.25" transform="rotate(0)"><tspan id="SvgjsTspan1903" dy="17" x="63"><tspan id="SvgjsTspan1904" style="text-decoration:;">堆</tspan></tspan><tspan id="SvgjsTspan1905" dy="17" x="63"><tspan id="SvgjsTspan1906" style="text-decoration:;">Heap</tspan></tspan></text></g></g><g id="SvgjsG1907" transform="translate(279.5,747.2999877929688)"><path id="SvgjsPath1908" d="M0 4Q0 0 4 0L124 0Q128 0 128 4L128 74Q128 78 124 78L4 78Q0 78 0 74Z " stroke="rgba(50,50,50,1)" stroke-width="2" fill-opacity="1" fill="#ffffff"></path><g id="SvgjsG1909"><text id="SvgjsText1910" font-family="微软雅黑" text-anchor="middle" font-size="14px" width="108px" fill="#323232" font-weight="400" align="middle" lineheight="125%" font-style="" opacity="1" y="19.25" transform="rotate(0)"><tspan id="SvgjsTspan1911" dy="17" x="64"><tspan id="SvgjsTspan1912" style="text-decoration:;">方法区</tspan></tspan><tspan id="SvgjsTspan1913" dy="17" x="64"><tspan id="SvgjsTspan1914" style="text-decoration:;">Method Area</tspan></tspan></text></g></g><g id="SvgjsG1915" transform="translate(479.5,754.2999877929688)"><path id="SvgjsPath1916" d="M0 0L126 0L126 78L0 78Z " stroke="rgba(50,50,50,1)" stroke-width="2" fill-opacity="1" fill="#ffffff"></path><g id="SvgjsG1917"><text id="SvgjsText1918" font-family="微软雅黑" text-anchor="middle" font-size="14px" width="106px" fill="#323232" font-weight="400" align="middle" lineheight="125%" font-style="" opacity="1" y="19.25" transform="rotate(0)"><tspan id="SvgjsTspan1919" dy="17" x="63"><tspan id="SvgjsTspan1920" style="text-decoration:;">栈</tspan></tspan><tspan id="SvgjsTspan1921" dy="17" x="63"><tspan id="SvgjsTspan1922" style="text-decoration:;">Stack</tspan></tspan></text></g></g><g id="SvgjsG1923" transform="translate(632.5,754.2999877929688)"><path id="SvgjsPath1924" d="M0 4Q0 0 4 0L179 0Q183 0 183 4L183 74Q183 78 179 78L4 78Q0 78 0 74Z " stroke="rgba(50,50,50,1)" stroke-width="2" fill-opacity="1" fill="#ffffff"></path><g id="SvgjsG1925"><text id="SvgjsText1926" font-family="微软雅黑" text-anchor="middle" font-size="14px" width="163px" fill="#323232" font-weight="400" align="middle" lineheight="125%" font-style="" opacity="1" y="19.25" transform="rotate(0)"><tspan id="SvgjsTspan1927" dy="17" x="91.5"><tspan id="SvgjsTspan1928" style="text-decoration:;">本地方法栈</tspan></tspan><tspan id="SvgjsTspan1929" dy="17" x="91.5"><tspan id="SvgjsTspan1930" style="text-decoration:;">Native Method </tspan><tspan id="SvgjsTspan1931" style="text-decoration:;font-size: inherit;">Stack</tspan></tspan></text></g></g><g id="SvgjsG1932" transform="translate(479.5,854.2999877929688)"><path id="SvgjsPath1933" d="M0 4Q0 0 4 0L332 0Q336 0 336 4L336 68Q336 72 332 72L4 72Q0 72 0 68Z " stroke="rgba(50,50,50,1)" stroke-width="2" fill-opacity="1" fill="#ffffff"></path><g id="SvgjsG1934"><text id="SvgjsText1935" font-family="微软雅黑" text-anchor="middle" font-size="14px" width="316px" fill="#323232" font-weight="400" align="middle" lineheight="125%" font-style="" opacity="1" y="16.25" transform="rotate(0)"><tspan id="SvgjsTspan1936" dy="17" x="168"><tspan id="SvgjsTspan1937" style="text-decoration:;">程序计数器</tspan></tspan><tspan id="SvgjsTspan1938" dy="17" x="168"><tspan id="SvgjsTspan1939" style="text-decoration:;">Program Counter Register</tspan></tspan></text></g></g><g id="SvgjsG1940"><path id="SvgjsPath1941" d="M600.3733333333333 585.2999877929688L600.3733333333333 632.7999877929686L600.2777777777776 632.7999877929686L600.2777777777776 677.6999877929686 " stroke="#323232" stroke-width="2" fill="none" marker-end="url(#SvgjsMarker1942)"></path></g><g id="SvgjsG1944"><path id="SvgjsPath1945" d="M691.3888888888887 683.5222100151908L691.3888888888887 634.9110989040797L691.3888888888887 634.9110989040797L691.3888888888887 589.8999877929687 " stroke="#323232" stroke-width="2" fill="none" marker-end="url(#SvgjsMarker1946)"></path></g><g id="SvgjsG1948" transform="translate(651.3888888888888,684.633321126302)"><path id="SvgjsPath1949" d="M0 0L237.77777777777783 0L237.77777777777783 31.111111111111114L0 31.111111111111114Z " stroke="none" fill="none"></path><g id="SvgjsG1950"><text id="SvgjsText1951" font-family="微软雅黑" text-anchor="middle" font-size="13px" width="238px" fill="#323232" font-weight="400" align="middle" lineheight="125%" font-style="" opacity="1" y="4.930555555555557" transform="rotate(0)"><tspan id="SvgjsTspan1952" dy="16" x="119"><tspan id="SvgjsTspan1953" style="text-decoration:;">运行时数据区（Runtime Data Area）</tspan></tspan></text></g></g><g id="SvgjsG1954" transform="translate(282.28763399888214,1041.666805976403)"><path id="SvgjsPath1955" d="M0 4Q0 0 4 0L176.54869684499317 0Q180.54869684499317 0 180.54869684499317 4L180.54869684499317 76.80246913580277Q180.54869684499317 80.80246913580277 176.54869684499317 80.80246913580277L4 80.80246913580277Q0 80.80246913580277 0 76.80246913580277Z " stroke="rgba(50,50,50,1)" stroke-width="2" fill-opacity="1" fill="#ffffff"></path><g id="SvgjsG1956"><text id="SvgjsText1957" font-family="微软雅黑" text-anchor="middle" font-size="14px" width="161px" fill="#323232" font-weight="400" align="middle" lineheight="125%" font-style="" opacity="1" y="29.151234567901383" transform="rotate(0)"><tspan id="SvgjsTspan1958" dy="17" x="90.5"><tspan id="SvgjsTspan1959" style="text-decoration:;">执行引擎</tspan></tspan></text></g></g><g id="SvgjsG1960" transform="translate(563.553447137123,1043.96206546899)"><path id="SvgjsPath1961" d="M0 4Q0 0 4 0L176 0Q180 0 180 4L180 76.58984910836784Q180 80.58984910836784 176 80.58984910836784L4 80.58984910836784Q0 80.58984910836784 0 76.58984910836784Z " stroke="rgba(50,50,50,1)" stroke-width="2" fill-opacity="1" fill="#ffffff"></path><g id="SvgjsG1962"><text id="SvgjsText1963" font-family="微软雅黑" text-anchor="middle" font-size="14px" width="160px" fill="#323232" font-weight="400" align="middle" lineheight="125%" font-style="" opacity="1" y="20.544924554183922" transform="rotate(0)"><tspan id="SvgjsTspan1964" dy="17" x="90"><tspan id="SvgjsTspan1965" style="text-decoration:;">本地方法接口</tspan></tspan><tspan id="SvgjsTspan1966" dy="17" x="90"><tspan id="SvgjsTspan1967" style="text-decoration:;">JNI</tspan></tspan></text></g></g><g id="SvgjsG1968" transform="translate(759.7253340446069,1032.4338034862135)"><path id="SvgjsPath1969" d="M0 49.72222222222223L49.72222222222223 0L49.72222222222223 32.81666666666667L129.44444444444446 32.81666666666667L129.44444444444446 66.6277777777778L49.72222222222223 66.6277777777778L49.72222222222223 99.44444444444446L0 49.72222222222223Z " stroke="rgba(50,50,50,1)" stroke-width="2" fill-opacity="1" fill="#ffffff"></path><g id="SvgjsG1970"><text id="SvgjsText1971" font-family="微软雅黑" text-anchor="middle" font-size="14px" width="130px" fill="#323232" font-weight="400" align="middle" lineheight="125%" font-style="" opacity="1" y="38.47222222222223" transform="rotate(0)"><tspan id="SvgjsTspan1972" dy="17" x="65"><tspan id="SvgjsTspan1973" style="text-decoration:;">本地方法库</tspan></tspan></text></g></g><g id="SvgjsG1974"><path id="SvgjsPath1975" d="M332.5 992.2999877929688L332.4999999999999 1038.3666544596354 " stroke="#323232" stroke-width="2" fill="none" marker-end="url(#SvgjsMarker1976)"></path></g><g id="SvgjsG1978"><path id="SvgjsPath1979" d="M415.83333333333314 1040.9666544596353L415.83333333333314 995.5666544596353 " stroke="#323232" stroke-width="2" fill="none" marker-end="url(#SvgjsMarker1980)"></path></g><g id="SvgjsG1982"><path id="SvgjsPath1983" d="M611.8461527926582 992.9665722869904L612.4538499464296 1040.3669502811567 " stroke="#323232" stroke-width="2" fill="none" marker-end="url(#SvgjsMarker1984)"></path></g><g id="SvgjsG1986"><path id="SvgjsPath1987" d="M707.8461527926582 1042.9667366322801L708.4538499464295 995.5663586381138 " stroke="#323232" stroke-width="2" fill="none" marker-end="url(#SvgjsMarker1988)"></path></g><g id="SvgjsG1990"><path id="SvgjsPath1991" d="M843.5 769.0777655707465L926.9444444444445 769.0777655707465 " stroke="#323232" stroke-width="2" fill="none" marker-end="url(#SvgjsMarker1992)"></path></g><g id="SvgjsG1994" transform="translate(923.6111111111109,752.41109890408)"><path id="SvgjsPath1995" d="M0 0L95.55555555555554 0L95.55555555555554 33.333333333333314L0 33.333333333333314Z " stroke="none" fill="none"></path><g id="SvgjsG1996"><text id="SvgjsText1997" font-family="微软雅黑" text-anchor="middle" font-size="14px" width="96px" fill="#323232" font-weight="400" align="middle" lineheight="125%" font-style="" opacity="1" y="5.416666666666657" transform="rotate(0)"><tspan id="SvgjsTspan1998" dy="17" x="48"><tspan id="SvgjsTspan1999" style="text-decoration:;">不会产生垃圾</tspan></tspan></text></g></g><g id="SvgjsG2000"><path id="SvgjsPath2001" d="M261.5 792.4110989040798L182.49999999999997 792.4110989040798 " stroke="#323232" stroke-width="2" fill="none" marker-end="url(#SvgjsMarker2002)"></path></g><g id="SvgjsG2004" transform="translate(33.43073593073592,762.2125436631998)"><path id="SvgjsPath2005" d="M0 0L157.59199134199133 0L157.59199134199133 72.08709763365476L0 72.08709763365476Z " stroke="none" fill="none"></path><g id="SvgjsG2006"><text id="SvgjsText2007" font-family="微软雅黑" text-anchor="start" font-size="14px" width="158px" fill="#323232" font-weight="400" align="middle" lineheight="125%" font-style="" opacity="1" y="8.293548816827382" transform="rotate(0)"><tspan id="SvgjsTspan2008" dy="17" x="0"><tspan id="SvgjsTspan2009" style="text-decoration:;font-size: inherit;">1、方法区也是特殊的堆;</tspan></tspan><tspan id="SvgjsTspan2010" dy="17" x="0"><tspan id="SvgjsTspan2011" style="text-decoration:;font-size: inherit;">2、JVM调优是调的堆</tspan></tspan><tspan id="SvgjsTspan2012" dy="17" x="0"><tspan id="SvgjsTspan2013" style="text-decoration:;font-size: inherit;">（99%是在堆里）;</tspan></tspan></text></g></g><g id="SvgjsG2014" transform="translate(27.186765615337023,476.2999877929686)"><path id="SvgjsPath2015" d="M0 0L120 0L120 40L0 40Z " stroke="none" fill="none"></path><g id="SvgjsG2016"><text id="SvgjsText2017" font-family="微软雅黑" text-anchor="middle" font-size="16px" width="120px" fill="#323232" font-weight="700" align="middle" lineheight="125%" font-style="" opacity="1" y="6" transform="rotate(0)"><tspan id="SvgjsTspan2018" dy="20" x="60"><tspan id="SvgjsTspan2019" style="text-decoration:;">JVM模型</tspan></tspan></text></g></g><g id="SvgjsG2020" transform="translate(30.445016333561767,29.01066600364768)"><path id="SvgjsPath2021" d="M0 0L120 0L120 40L0 40Z " stroke="none" fill="none"></path><g id="SvgjsG2022"><text id="SvgjsText2023" font-family="微软雅黑" text-anchor="middle" font-size="16px" width="120px" fill="#323232" font-weight="700" align="middle" lineheight="125%" font-style="" opacity="1" y="6" transform="rotate(0)"><tspan id="SvgjsTspan2024" dy="20" x="60"><tspan id="SvgjsTspan2025" style="text-decoration:;">JVM位置</tspan></tspan></text></g></g><g id="SvgjsG2026" transform="translate(311.43610823387445,198.18562992861203)"><path id="SvgjsPath2027" d="M0 4Q0 0 4 0L412.6071428571429 0Q416.6071428571429 0 416.6071428571429 4L416.6071428571429 40Q416.6071428571429 44 412.6071428571429 44L4 44Q0 44 0 40Z " stroke="rgba(50,50,50,1)" stroke-width="2" fill-opacity="1" fill="#ffcccc"></path><g id="SvgjsG2028"><text id="SvgjsText2029" font-family="微软雅黑" text-anchor="middle" font-size="17px" width="397px" fill="#323232" font-weight="400" align="middle" lineheight="125%" font-style="" opacity="1" y="7.375" transform="rotate(0)"><tspan id="SvgjsTspan2030" dy="21" x="208.5"><tspan id="SvgjsTspan2031" style="text-decoration:;">jre-JVM</tspan></tspan></text></g></g><g id="SvgjsG2032" transform="translate(276.18610823387445,276.1856299286119)"><path id="SvgjsPath2033" d="M0 4Q0 0 4 0L483.1071428571429 0Q487.1071428571429 0 487.1071428571429 4L487.1071428571429 47Q487.1071428571429 51 483.1071428571429 51L4 51Q0 51 0 47Z " stroke="rgba(50,50,50,1)" stroke-width="2" fill-opacity="1" fill="#ffffff"></path><g id="SvgjsG2034"><text id="SvgjsText2035" font-family="微软雅黑" text-anchor="middle" font-size="17px" width="468px" fill="#323232" font-weight="400" align="middle" lineheight="125%" font-style="" opacity="1" y="10.875" transform="rotate(0)"><tspan id="SvgjsTspan2036" dy="21" x="244"><tspan id="SvgjsTspan2037" style="text-decoration:;">操作系统（Window、Linux、Mac）</tspan></tspan></text></g></g><g id="SvgjsG2038" transform="translate(244.3111082338745,369.4713442143252)"><path id="SvgjsPath2039" d="M0 4Q0 0 4 0L546.8571428571429 0Q550.8571428571429 0 550.8571428571429 4L550.8571428571429 54Q550.8571428571429 58 546.8571428571429 58L4 58Q0 58 0 54Z " stroke="rgba(50,50,50,1)" stroke-width="2" fill-opacity="1" fill="#ffffff"></path><g id="SvgjsG2040"><text id="SvgjsText2041" font-family="微软雅黑" text-anchor="middle" font-size="17px" width="531px" fill="#323232" font-weight="400" align="middle" lineheight="125%" font-style="" opacity="1" y="14.375" transform="rotate(0)"><tspan id="SvgjsTspan2042" dy="21" x="275.5"><tspan id="SvgjsTspan2043" style="text-decoration:;">硬件体系（Intel、Spac）</tspan></tspan></text></g></g><g id="SvgjsG2044" transform="translate(410.8646796624457,88.18562992861204)"><path id="SvgjsPath2045" d="M0 33.5C0 -11.166666666666666 217.7500000000001 -11.166666666666666 217.7500000000001 33.5C217.7500000000001 78.16666666666667 0 78.16666666666667 0 33.5Z " stroke="rgba(50,50,50,1)" stroke-width="2" fill-opacity="1" fill="#ffffff"></path><g id="SvgjsG2046"><text id="SvgjsText2047" font-family="微软雅黑" text-anchor="middle" font-size="13px" width="198px" fill="#323232" font-weight="400" align="middle" lineheight="125%" font-style="" opacity="1" y="22.875" transform="rotate(0)"><tspan id="SvgjsTspan2048" dy="16" x="109"><tspan id="SvgjsTspan2049" style="text-decoration:;">java程序</tspan></tspan></text></g></g><g id="SvgjsG2050"><path id="SvgjsPath2051" d="M485.3470575358252 154.18887898798081L483.9847371350275 195.016203830325 " stroke="#323232" stroke-width="2" fill="none" marker-end="url(#SvgjsMarker2052)"></path></g><g id="SvgjsG2054"><path id="SvgjsPath2055" d="M553.1131311063217 197.61489585803977L551.6069523423536 157.22257344526562 " stroke="#323232" stroke-width="2" fill="none" marker-end="url(#SvgjsMarker2056)"></path></g><g id="SvgjsG2058"><path id="SvgjsPath2059" d="M486.00753680530255 242.471344214326L486.00753680530255 272.87134421432586 " stroke="#323232" stroke-width="2" fill="none" marker-end="url(#SvgjsMarker2060)"></path></g><g id="SvgjsG2062"><path id="SvgjsPath2063" d="M561.7014186049256 275.47155239586243L561.0809908980874 245.0705947607944 " stroke="#323232" stroke-width="2" fill="none" marker-end="url(#SvgjsMarker2064)"></path></g><g id="SvgjsG2066"><path id="SvgjsPath2067" d="M481.72182251958833 327.4713442143259L481.72182251958833 366.4427727857543 " stroke="#323232" stroke-width="2" fill="none" marker-end="url(#SvgjsMarker2068)"></path></g><g id="SvgjsG2070"><path id="SvgjsPath2071" d="M563.897448939266 369.0433098427211L565.175281694462 330.0694108092455 " stroke="#323232" stroke-width="2" fill="none" marker-end="url(#SvgjsMarker2072)"></path></g><g id="SvgjsG2074" transform="translate(252,712.41109890408)"><path id="SvgjsPath2075" d="M0 0L120 0L120 40L0 40Z " stroke="none" fill="none"></path><g id="SvgjsG2076"><text id="SvgjsText2077" font-family="微软雅黑" text-anchor="middle" font-size="13px" width="120px" fill="#323232" font-weight="400" align="middle" lineheight="125%" font-style="" opacity="1" y="9.375" transform="rotate(0)"><tspan id="SvgjsTspan2078" dy="16" x="60"><tspan id="SvgjsTspan2079" style="text-decoration:;">线程共享</tspan></tspan></text></g></g></svg>