<?xml version="1.0" standalone="no"?><?xml-stylesheet type="text/css" href="https://www.processon.com/themes/default/mind/icons/icons.css" ?><!DOCTYPE svg PUBLIC "-//W3C//DTD SVG 1.1//EN" "http://www.w3.org/Graphics/SVG/1.1/DTD/svg11.dtd"><svg id="SvgjsSvg1000" xmlns="http://www.w3.org/2000/svg" version="1.1" xmlns:xlink="http://www.w3.org/1999/xlink" xmlns:svgjs="http://svgjs.com/svgjs" width="721.5000305175781" height="254"><rect fill="url(#pattern_mark)" transform="translate(-128.59999084472656,-77.5999984741211)" width="1050" height="1500" id="rect_mark" pointer-events="none"></rect><defs id="SvgjsDefs1001"><marker id="SvgjsMarker1073" markerWidth="14" markerHeight="10" refX="10" refY="5" viewBox="0 0 14 10" orient="auto" markerUnits="userSpaceOnUse" stroke-dasharray="0,0"><path id="SvgjsPath1074" d="M0 0L14 5L0 10L0 0 " fill="#323232" stroke="#323232" stroke-width="1"></path></marker><marker id="SvgjsMarker1077" markerWidth="14" markerHeight="10" refX="10" refY="5" viewBox="0 0 14 10" orient="auto" markerUnits="userSpaceOnUse" stroke-dasharray="0,0"><path id="SvgjsPath1078" d="M0 0L14 5L0 10L0 0 " fill="#323232" stroke="#323232" stroke-width="1"></path></marker><marker id="SvgjsMarker1081" markerWidth="14" markerHeight="10" refX="10" refY="5" viewBox="0 0 14 10" orient="auto" markerUnits="userSpaceOnUse" stroke-dasharray="0,0"><path id="SvgjsPath1082" d="M0 0L14 5L0 10L0 0 " fill="#323232" stroke="#323232" stroke-width="1"></path></marker><pattern patternUnits="userSpaceOnUse" id="pattern_mark" width="300" height="300"><text x="-50" y="150" fill="rgba(229,229,229,0.8)" font-size="18" transform="rotate(-45, 150, 150)"></text></pattern></defs><g id="svgbackgroundid"><defs></defs><rect x="0" y="0" width="721.5000305175781" height="254" fill="#ffffff"></rect></g><g id="SvgjsG1007" transform="translate(25,70)"><path id="SvgjsPath1008" d="M0 0L100 0L100 70L0 70Z " stroke="rgba(50,50,50,1)" stroke-width="2" fill-opacity="1" fill="#ffffff"></path><g id="SvgjsG1009"><text id="SvgjsText1010" font-family="微软雅黑" text-anchor="middle" font-size="13px" width="80px" fill="#323232" font-weight="400" align="middle" lineheight="125%" font-style="" opacity="1" y="16.375" transform="rotate(0)"><tspan id="SvgjsTspan1011" dy="16" x="50"><tspan id="SvgjsTspan1012" style="text-decoration:;">前端:</tspan></tspan><tspan id="SvgjsTspan1013" dy="16" x="50"><tspan id="SvgjsTspan1014" style="text-decoration:;">main主方法</tspan></tspan></text></g></g><g id="SvgjsG1015" transform="translate(181.5,70)"><path id="SvgjsPath1016" d="M0 0L100 0L100 70L0 70Z " stroke="rgba(50,50,50,1)" stroke-width="2" fill-opacity="1" fill="#ffffff"></path><g id="SvgjsG1017"><text id="SvgjsText1018" font-family="微软雅黑" text-anchor="middle" font-size="13px" width="80px" fill="#323232" font-weight="400" align="middle" lineheight="125%" font-style="" opacity="1" y="16.375" transform="rotate(0)"><tspan id="SvgjsTspan1019" dy="16" x="50"><tspan id="SvgjsTspan1020" style="text-decoration:;">控制层</tspan></tspan><tspan id="SvgjsTspan1021" dy="16" x="50"><tspan id="SvgjsTspan1022" style="text-decoration:;">action</tspan></tspan></text></g></g><g id="SvgjsG1023" transform="translate(338,70)"><path id="SvgjsPath1024" d="M0 0L100 0L100 70L0 70Z " stroke="rgba(50,50,50,1)" stroke-width="2" fill-opacity="1" fill="#ffffff"></path><g id="SvgjsG1025"><text id="SvgjsText1026" font-family="微软雅黑" text-anchor="middle" font-size="13px" width="80px" fill="#323232" font-weight="400" align="middle" lineheight="125%" font-style="" opacity="1" y="16.375" transform="rotate(0)"><tspan id="SvgjsTspan1027" dy="16" x="50"><tspan id="SvgjsTspan1028" style="text-decoration:;">业务层</tspan></tspan><tspan id="SvgjsTspan1029" dy="16" x="50"><tspan id="SvgjsTspan1030" style="text-decoration:;">service</tspan></tspan></text></g></g><g id="SvgjsG1031" transform="translate(494.5,74.5)"><path id="SvgjsPath1032" d="M0 0L202.10000610351562 0L202.10000610351562 61L0 61Z " stroke="rgba(50,50,50,1)" stroke-width="2" fill-opacity="1" fill="#ffffff"></path><g id="SvgjsG1033"><text id="SvgjsText1034" font-family="微软雅黑" text-anchor="middle" font-size="13px" width="183px" fill="#323232" font-weight="400" align="middle" lineheight="125%" font-style="" opacity="1" y="3.875" transform="rotate(0)"><tspan id="SvgjsTspan1035" dy="16" x="101.5"><tspan id="SvgjsTspan1036" style="text-decoration:;">ORM</tspan></tspan><tspan id="SvgjsTspan1037" dy="16" x="101.5"><tspan id="SvgjsTspan1038" style="text-decoration:;">(Object-Relationl Mapping)</tspan></tspan><tspan id="SvgjsTspan1039" dy="16" x="101.5"><tspan id="SvgjsTspan1040" style="text-decoration:;">持久化</tspan></tspan></text></g></g><g id="SvgjsG1041" transform="translate(171.5,25)"><path id="SvgjsPath1042" d="M0 0L120 0L120 40L0 40Z " stroke="none" fill="none"></path><g id="SvgjsG1043"><text id="SvgjsText1044" font-family="微软雅黑" text-anchor="middle" font-size="13px" width="120px" fill="#323232" font-weight="400" align="middle" lineheight="125%" font-style="" opacity="1" y="1.375" transform="rotate(0)"><tspan id="SvgjsTspan1045" dy="16" x="60"><tspan id="SvgjsTspan1046" style="text-decoration:;">负责把用户输入的信</tspan></tspan><tspan id="SvgjsTspan1047" dy="16" x="60"><tspan id="SvgjsTspan1048" style="text-decoration:;">息封装JavaBean</tspan></tspan></text></g></g><g id="SvgjsG1049" transform="translate(320.6000061035156,25)"><path id="SvgjsPath1050" d="M0 0L120 0L120 40L0 40Z " stroke="none" fill="none"></path><g id="SvgjsG1051"><text id="SvgjsText1052" font-family="微软雅黑" text-anchor="middle" font-size="13px" width="120px" fill="#323232" font-weight="400" align="middle" lineheight="125%" font-style="" opacity="1" y="9.375" transform="rotate(0)"><tspan id="SvgjsTspan1053" dy="16" x="60"><tspan id="SvgjsTspan1054" style="text-decoration:;">业务:CRUD</tspan></tspan></text></g></g><g id="SvgjsG1055" transform="translate(539.5500030517578,25)"><path id="SvgjsPath1056" d="M0 0L120 0L120 40L0 40Z " stroke="none" fill="none"></path><g id="SvgjsG1057"><text id="SvgjsText1058" font-family="微软雅黑" text-anchor="middle" font-size="13px" width="120px" fill="#323232" font-weight="400" align="middle" lineheight="125%" font-style="" opacity="1" y="9.375" transform="rotate(0)"><tspan id="SvgjsTspan1059" dy="16" x="60"><tspan id="SvgjsTspan1060" style="text-decoration:;">把数据存储在集合中</tspan></tspan></text></g></g><g id="SvgjsG1061" transform="translate(233.60000610351562,161)"><path id="SvgjsPath1062" d="M0 0L155 0L171 16L171 68L0 68L0 0Z " stroke="none" fill-opacity="1" fill="#ffffaa"></path><path id="SvgjsPath1063" d="M155 0L155 16L171 16Z " stroke="none" fill-opacity="1" fill="#cdcdcd"></path><path id="SvgjsPath1064" d="M0 0L155 0L171 16L171 68L0 68L0 0Z " stroke="none" fill="none"></path><g id="SvgjsG1065"><text id="SvgjsText1066" font-family="微软雅黑" text-anchor="start" font-size="13px" width="151px" fill="#323232" font-weight="400" align="middle" lineheight="125%" font-style="" opacity="1" y="15.375" transform="rotate(0)"><tspan id="SvgjsTspan1067" dy="16" x="10"><tspan id="SvgjsTspan1068" style="text-decoration:;">1.完成JavaBean的编写</tspan></tspan><tspan id="SvgjsTspan1069" dy="16" x="10"><tspan id="SvgjsTspan1070" style="text-decoration:;">2.完成工具类编写</tspan></tspan></text></g></g><g id="SvgjsG1071"><path id="SvgjsPath1072" d="M126 105L153.25 105L153.25 105L177.89999999999998 105 " stroke="#323232" stroke-width="2" fill="none" marker-end="url(#SvgjsMarker1073)"></path></g><g id="SvgjsG1075"><path id="SvgjsPath1076" d="M282.5 105L309.75 105L309.75 105L334.4 105 " stroke="#323232" stroke-width="2" fill="none" marker-end="url(#SvgjsMarker1077)"></path></g><g id="SvgjsG1079"><path id="SvgjsPath1080" d="M439 105L466.25 105L466.25 105L490.9 105 " stroke="#323232" stroke-width="2" fill="none" marker-end="url(#SvgjsMarker1081)"></path></g></svg>